<svg width="52" height="52" viewBox="0 0 52 52" fill="none" xmlns="http://www.w3.org/2000/svg">
<path d="M0.611771 25.135C0.936271 25.3779 1.34416 25.4822 1.74571 25.425C2.14726 25.3677 2.50957 25.1536 2.75295 24.8297C4.03359 23.1269 5.69328 21.7445 7.60101 20.7916C9.50874 19.8386 11.6123 19.3413 13.7456 19.3388C15.8789 19.3364 17.9836 19.8288 19.8936 20.7773C21.8035 21.7258 23.4664 23.1044 24.751 24.8043L24.8784 24.9569L24.9804 25.0587H25.0059L25.0824 25.1096L25.2608 25.2368H25.3373L25.5157 25.3131H25.5667L25.7196 25.364H26.5098L26.6627 25.2877H26.7137L26.8157 25.2368L26.8667 25.1859H26.9431C26.9686 25.1859 26.9686 25.1605 26.9941 25.135L27.0706 25.0587H27.1216L27.2235 24.9315C28.5057 23.2253 30.1682 21.8405 32.0795 20.8867C33.9908 19.933 36.0984 19.4364 38.2353 19.4364C40.3722 19.4364 42.4798 19.933 44.3911 20.8867C46.3024 21.8405 47.9649 23.2253 49.2471 24.9315C49.4904 25.2554 49.8527 25.4695 50.2543 25.5267C50.6558 25.584 51.0637 25.4797 51.3882 25.2368C51.5489 25.1165 51.6843 24.9658 51.7866 24.7934C51.8889 24.6209 51.9562 24.43 51.9846 24.2315C52.013 24.0331 52.002 23.831 51.9521 23.6368C51.9023 23.4426 51.8146 23.2602 51.6941 23.0998C49.7627 20.5285 47.1364 18.5605 44.1235 17.4266C45.3219 16.5211 46.29 15.347 46.9498 13.9991C47.6096 12.6512 47.9425 11.1673 47.9216 9.66732C47.9216 7.10339 46.9011 4.64447 45.0845 2.83149C43.268 1.01852 40.8043 0 38.2353 0C35.6663 0 33.2026 1.01852 31.3861 2.83149C29.5695 4.64447 28.549 7.10339 28.549 9.66732C28.5441 11.1502 28.8846 12.6139 29.5438 13.9428C30.2029 15.2718 31.1626 16.4296 32.3471 17.3249C29.9306 18.2199 27.7572 19.666 26 21.5479C24.2428 19.666 22.0694 18.2199 19.6529 17.3249C20.8374 16.4296 21.7971 15.2718 22.4562 13.9428C23.1154 12.6139 23.4559 11.1502 23.451 9.66732C23.451 7.10339 22.4305 4.64447 20.6139 2.83149C18.7974 1.01852 16.3337 0 13.7647 0C11.1958 0 8.73201 1.01852 6.91548 2.83149C5.09895 4.64447 4.07844 7.10339 4.07844 9.66732C4.07348 11.1502 4.41403 12.6139 5.07317 13.9428C5.73232 15.2718 6.69202 16.4296 7.87648 17.3249C4.86362 18.4587 2.23735 20.4268 0.305889 22.998C0.0625137 23.3219 -0.0419865 23.729 0.0153776 24.1298C0.0727416 24.5305 0.287271 24.8921 0.611771 25.135ZM31.6078 9.66732C31.6078 8.3591 31.9965 7.08026 32.7248 5.99251C33.453 4.90476 34.4881 4.05697 35.6991 3.55634C36.9101 3.0557 38.2426 2.92471 39.5282 3.17993C40.8138 3.43515 41.9947 4.06512 42.9216 4.99017C43.8485 5.91523 44.4797 7.09381 44.7354 8.3769C44.9911 9.65998 44.8599 10.9899 44.3583 12.1986C43.8566 13.4072 43.0072 14.4402 41.9173 15.1671C40.8274 15.8939 39.5461 16.2818 38.2353 16.2818C36.4797 16.2751 34.7978 15.5761 33.5564 14.3371C32.315 13.0981 31.6146 11.4195 31.6078 9.66732ZM7.13726 9.66732C7.13726 8.3591 7.52595 7.08026 8.25419 5.99251C8.98242 4.90476 10.0175 4.05697 11.2285 3.55634C12.4395 3.0557 13.7721 2.92471 15.0577 3.17993C16.3433 3.43515 17.5242 4.06512 18.451 4.99017C19.3779 5.91523 20.0091 7.09381 20.2648 8.3769C20.5205 9.65998 20.3893 10.9899 19.8877 12.1986C19.3861 13.4072 18.5366 14.4402 17.4467 15.1671C16.3568 15.8939 15.0755 16.2818 13.7647 16.2818C12.0091 16.2751 10.3272 15.5761 9.08581 14.3371C7.84438 13.0981 7.14397 11.4195 7.13726 9.66732ZM44.1235 43.7828C45.308 42.8875 46.2677 41.7297 46.9268 40.4008C47.586 39.0718 47.9265 37.6081 47.9216 36.1252C47.9216 33.5613 46.9011 31.1024 45.0845 29.2894C43.268 27.4764 40.8043 26.4579 38.2353 26.4579C35.6663 26.4579 33.2026 27.4764 31.3861 29.2894C29.5695 31.1024 28.549 33.5613 28.549 36.1252C28.5441 37.6081 28.8846 39.0718 29.5438 40.4008C30.2029 41.7297 31.1626 42.8875 32.3471 43.7828C29.9306 44.6778 27.7572 46.1239 26 48.0059C24.2428 46.1239 22.0694 44.6778 19.6529 43.7828C20.8374 42.8875 21.7971 41.7297 22.4562 40.4008C23.1154 39.0718 23.4559 37.6081 23.451 36.1252C23.451 33.5613 22.4305 31.1024 20.6139 29.2894C18.7974 27.4764 16.3337 26.4579 13.7647 26.4579C11.1958 26.4579 8.73201 27.4764 6.91548 29.2894C5.09895 31.1024 4.07844 33.5613 4.07844 36.1252C4.07348 37.6081 4.41403 39.0718 5.07317 40.4008C5.73232 41.7297 6.69202 42.8875 7.87648 43.7828C4.86362 44.9166 2.23735 46.8847 0.305889 49.456C0.185382 49.6163 0.0977018 49.7988 0.0478558 49.993C-0.00199012 50.1872 -0.0130262 50.3892 0.0153776 50.5877C0.0437814 50.7861 0.111069 50.977 0.213398 51.1495C0.315727 51.322 0.451095 51.4727 0.611771 51.593C0.772447 51.7132 0.955285 51.8007 1.14985 51.8505C1.34441 51.9002 1.54688 51.9112 1.74571 51.8829C1.94454 51.8545 2.13582 51.7874 2.30864 51.6853C2.48147 51.5831 2.63244 51.448 2.75295 51.2877C4.03359 49.5848 5.69328 48.2024 7.60101 47.2495C9.50874 46.2966 11.6123 45.7992 13.7456 45.7968C15.8789 45.7943 17.9836 46.2868 19.8936 47.2353C21.8035 48.1838 23.4664 49.5624 24.751 51.2622L24.8784 51.4149L24.9804 51.5166H25.0059L25.0824 51.5675L25.2608 51.6947H25.3373L25.5157 51.771H25.5667L25.7196 51.8219H26.5098L26.6627 51.7456H26.7137L26.8157 51.6947L26.8667 51.6438H26.9431C26.9686 51.6438 26.9686 51.6184 26.9941 51.593L27.0706 51.5166H27.1216L27.2235 51.3894C28.5057 49.6833 30.1682 48.2984 32.0795 47.3447C33.9908 46.3909 36.0984 45.8943 38.2353 45.8943C40.3722 45.8943 42.4798 46.3909 44.3911 47.3447C46.3024 48.2984 47.9649 49.6833 49.2471 51.3894C49.4904 51.7133 49.8527 51.9274 50.2543 51.9847C50.6558 52.0419 51.0637 51.9376 51.3882 51.6947C51.7127 51.4518 51.9273 51.0902 51.9846 50.6894C52.042 50.2887 51.9375 49.8816 51.6941 49.5577C49.7768 46.9489 47.1491 44.9445 44.1235 43.7828ZM7.13726 36.1252C7.13726 34.817 7.52595 33.5382 8.25419 32.4504C8.98242 31.3627 10.0175 30.5149 11.2285 30.0143C12.4395 29.5136 13.7721 29.3826 15.0577 29.6379C16.3433 29.8931 17.5242 30.523 18.451 31.4481C19.3779 32.3731 20.0091 33.5517 20.2648 34.8348C20.5205 36.1179 20.3893 37.4479 19.8877 38.6565C19.3861 39.8651 18.5366 40.8982 17.4467 41.625C16.3568 42.3518 15.0755 42.7397 13.7647 42.7397C12.0091 42.733 10.3272 42.034 9.08581 40.795C7.84438 39.556 7.14397 37.8774 7.13726 36.1252ZM31.6078 36.1252C31.6078 34.817 31.9965 33.5382 32.7248 32.4504C33.453 31.3627 34.4881 30.5149 35.6991 30.0143C36.9101 29.5136 38.2426 29.3826 39.5282 29.6379C40.8138 29.8931 41.9947 30.523 42.9216 31.4481C43.8485 32.3731 44.4797 33.5517 44.7354 34.8348C44.9911 36.1179 44.8599 37.4479 44.3583 38.6565C43.8566 39.8651 43.0072 40.8982 41.9173 41.625C40.8274 42.3518 39.5461 42.7397 38.2353 42.7397C36.4797 42.733 34.7978 42.034 33.5564 40.795C32.315 39.556 31.6146 37.8774 31.6078 36.1252Z" fill="#8479FF"/>
</svg>
